<svg width="110" height="115" viewBox="0 0 110 115" fill="none" xmlns="http://www.w3.org/2000/svg">
<path d="M44.448 58.552C49.12 59.128 52.576 60.632 54.816 63.064C57.12 65.432 58.272 68.376 58.272 71.896C58.272 75.416 56.96 78.744 54.336 81.88C51.776 85.016 48.48 87.448 44.448 89.176C42.656 89.88 40.288 90.392 37.344 90.712C34.464 91.032 31.488 91.192 28.416 91.192C23.296 91.192 18.048 90.712 12.672 89.752C11.712 89.56 10.688 89.08 9.6 88.312C8.576 87.544 8.064 86.424 8.064 84.952C8 79.064 7.776 70.872 7.392 60.376L7.296 55.096C7.04 46.904 6.912 40.472 6.912 35.8C6.912 34.968 7.392 34.008 8.352 32.92C9.376 31.768 10.592 31.128 12 31C12.832 31 13.632 30.968 14.4 30.904C21.632 30.2 26.464 29.848 28.896 29.848C33.696 29.848 37.92 30.328 41.568 31.288C45.28 32.184 48.352 33.848 50.784 36.28C51.68 37.304 52.416 38.616 52.992 40.216C53.568 41.752 53.856 43.256 53.856 44.728C53.92 47.864 53.088 50.744 51.36 53.368C49.696 55.992 47.392 57.72 44.448 58.552ZM29.472 38.008C27.296 38.008 25.024 38.136 22.656 38.392C20.352 38.648 18.4 38.968 16.8 39.352L17.376 57.496L20.832 57.4C26.4 56.824 30.496 56.344 33.12 55.96C34.784 55.576 36.416 54.84 38.016 53.752C39.616 52.6 40.928 51.416 41.952 50.2C43.04 48.92 43.584 47.96 43.584 47.32C43.584 46.36 43.392 45.4 43.008 44.44C42.624 43.416 42.208 42.68 41.76 42.232C40.032 40.568 38.272 39.448 36.48 38.872C34.688 38.296 32.352 38.008 29.472 38.008ZM17.664 82.744C20.928 83.192 24.032 83.416 26.976 83.416C33.44 83.416 38.528 82.584 42.24 80.92C46.016 79.192 47.904 75.928 47.904 71.128C47.904 69.208 46.464 67.608 43.584 66.328C40.704 65.048 37.6 64.408 34.272 64.408C32.032 64.408 29.184 64.664 25.728 65.176C22.976 65.56 20.288 65.816 17.664 65.944C17.792 69.784 17.856 72.216 17.856 73.24C17.856 75.224 17.824 76.728 17.76 77.752L17.664 82.744Z" fill="white"/>
<path d="M107.768 86.392C107.768 87.8 107 88.984 105.464 89.944C103.992 90.904 102.616 91.384 101.336 91.384C98.904 91.384 96.952 91.096 95.48 90.52C94.072 89.88 92.76 88.728 91.544 87.064C89.88 88.536 87.608 89.656 84.728 90.424C81.848 91.128 79.192 91.48 76.76 91.48C72.792 91.48 69.528 90.424 66.968 88.312C64.408 86.136 63.128 82.968 63.128 78.808C63.128 77.016 63.608 75.384 64.568 73.912C65.528 72.376 66.84 71.032 68.504 69.88C70.36 68.664 72.472 67.736 74.84 67.096C77.208 66.392 79.672 66.04 82.232 66.04C83.576 66.04 85.176 66.296 87.032 66.808C88.888 67.32 90.328 67.864 91.352 68.44V66.904C91.352 63.448 90.52 61.08 88.856 59.8C87.192 58.456 84.504 57.784 80.792 57.784C79.704 57.784 78.616 58.008 77.528 58.456C76.504 58.904 75.32 59.512 73.976 60.28C72.184 61.24 70.488 61.72 68.888 61.72C68.312 61.72 67.768 61.336 67.256 60.568C66.744 59.736 66.488 59 66.488 58.36C66.488 56.504 67.352 54.904 69.08 53.56C70.872 52.216 72.984 51.224 75.416 50.584C77.848 49.88 80.024 49.528 81.944 49.528C83.864 49.528 86.072 49.912 88.568 50.68C91.064 51.384 93.112 52.376 94.712 53.656C96.632 55.32 98.104 57.272 99.128 59.512C100.216 61.688 100.76 64.088 100.76 66.712C100.76 67.544 100.696 68.792 100.568 70.456C100.44 72.248 100.376 73.784 100.376 75.064C100.376 75.64 100.312 76.504 100.184 77.656C100.056 79.064 99.992 80.184 99.992 81.016C99.992 81.784 100.28 82.456 100.856 83.032C101.432 83.544 102.104 83.8 102.872 83.8L105.56 83.704C106.264 83.704 106.808 83.96 107.192 84.472C107.576 84.984 107.768 85.624 107.768 86.392ZM76.856 83.896C79.608 83.896 81.912 83.608 83.768 83.032C85.624 82.456 87.864 81.4 90.488 79.864C90.744 78.776 90.904 77.336 90.968 75.544C87.448 73.88 84.536 73.048 82.232 73.048C79.608 73.048 77.272 73.528 75.224 74.488C73.176 75.448 72.152 77.144 72.152 79.576C72.152 80.792 72.664 81.816 73.688 82.648C74.712 83.48 75.768 83.896 76.856 83.896Z" fill="#5390D9"/>
<rect x="63" y="32" width="43" height="7" fill="white"/>
</svg>
